<?xml version="1.0" encoding="UTF-8" standalone="no"?>
<svg
   width="260"
   height="300"
   version="1.1"
   id="svg1"
   sodipodi:docname="coa-filip.svg"
   inkscape:version="1.4 (e7c3feb100, 2024-10-09)"
   inkscape:export-filename="coa-filip.png"
   inkscape:export-xdpi="221.53847"
   inkscape:export-ydpi="221.53847"
   xmlns:inkscape="http://www.inkscape.org/namespaces/inkscape"
   xmlns:sodipodi="http://sodipodi.sourceforge.net/DTD/sodipodi-0.dtd"
   xmlns:xlink="http://www.w3.org/1999/xlink"
   xmlns="http://www.w3.org/2000/svg"
   xmlns:svg="http://www.w3.org/2000/svg">
  <sodipodi:namedview
     id="namedview1"
     pagecolor="#ffffff"
     bordercolor="#000000"
     borderopacity="0.25"
     inkscape:showpageshadow="2"
     inkscape:pageopacity="0.0"
     inkscape:pagecheckerboard="0"
     inkscape:deskcolor="#d1d1d1"
     inkscape:zoom="2.286226"
     inkscape:cx="84.856003"
     inkscape:cy="171.02421"
     inkscape:window-width="1745"
     inkscape:window-height="955"
     inkscape:window-x="0"
     inkscape:window-y="0"
     inkscape:window-maximized="1"
     inkscape:current-layer="g1" />
  <defs
     id="defs1">
    <linearGradient
       id="linearGradient13"
       inkscape:collect="always">
      <stop
         style="stop-color:#ffffff;stop-opacity:1;"
         offset="0"
         id="stop13" />
      <stop
         style="stop-color:#ffffff;stop-opacity:0.59394902;"
         offset="1"
         id="stop14" />
    </linearGradient>
    <linearGradient
       id="linearGradient11546">
      <stop
         id="stop11548"
         style="stop-color:#5d501b"
         offset="0" />
      <stop
         id="stop11550"
         style="stop-color:#e4e977"
         offset="1" />
    </linearGradient>
    <radialGradient
       id="radialGradient17358"
       xlink:href="#linearGradient11546"
       gradientUnits="userSpaceOnUse"
       cy="520.25"
       cx="460.62"
       gradientTransform="matrix(1.3369,-0.002039,3.7596e-4,0.24651,-155.37,314.44)"
       r="355.06"
       inkscape:collect="always" />
    <radialGradient
       id="radialGradient17360"
       xlink:href="#linearGradient11546"
       spreadMethod="reflect"
       gradientUnits="userSpaceOnUse"
       cy="555.86"
       cx="481.63"
       gradientTransform="matrix(13.658,-0.37982,0.33558,12.066,-6076.9,-5628.8)"
       r="42.152"
       inkscape:collect="always" />
    <linearGradient
       inkscape:collect="always"
       xlink:href="#linearGradient13"
       id="linearGradient14"
       x1="117.03845"
       y1="-16.998367"
       x2="142.9615"
       y2="229.64304"
       gradientUnits="userSpaceOnUse" />
  </defs>
  <g
     id="layer1-1"
     inkscape:label="Crown (Whole)"
     transform="matrix(0.10267095,0,0,0.10267095,70.707589,45.561399)"
     style="display:none">
    <g
       id="g17354"
       transform="matrix(1.3669,0,0,1.3669,-130.88,-288.28)">
      <path
         id="path11544"
         sodipodi:nodetypes="csccscc"
         style="fill:url(#radialGradient17358);fill-rule:evenodd;stroke:#000000;stroke-width:2"
         d="m 106.07,491.25 c 15.15,-83.51 246.72,-101.5 369.71,-102.03 113.38,-0.48 325.27,14.48 339.41,99 l -0.11,-56.55 c 0.06,-34.89 -116.17,-99.02 -343.34,-100.03 -231.31,-1.02 -365.08,53.07 -367.1,99.54 z" />
      <path
         id="path17343"
         sodipodi:nodetypes="csssscsccsscscsscscsscsssscscccscccssc"
         style="fill:url(#radialGradient17360);fill-rule:evenodd;stroke:#000000;stroke-width:1.737;stroke-linecap:square"
         d="m 629.22,419.19 c -1.22,-9.56 -5.51,-18.9 -13.63,-25.53 -7.74,-6.33 -17.41,-8.99 -26.75,-8.19 -9.33,0.8 -18.32,5.08 -24.81,12.62 -12.98,15.09 -10.95,37.6 4.53,50.25 0.08,0.07 0.14,0.1 0.22,0.16 22.28,22.75 11.27,57.75 3.28,68.34 -7.39,9.81 -16.01,17.52 -36.53,19.91 0,0 -7.68,-0.18 -11.56,0.03 -17.61,-1.01 -26.2,-10.4 -33.72,-20.06 -9.53,-12.24 -23.19,-53.43 3.66,-80 9.22,-9.13 13.79,-20.36 13.15,-32.03 -1.39,-11.01 -6.34,-21.74 -15.68,-29.38 -8.92,-7.28 -20.04,-10.36 -30.79,-9.43 -10.74,0.92 -21.12,5.84 -28.59,14.53 -14.95,17.37 -12.61,43.27 5.22,57.84 0.09,0.07 0.19,0.12 0.28,0.19 25.65,26.2 12.95,66.49 3.75,78.68 -8.51,11.29 -18.4,22.31 -42.25,20.6 -21.03,1.27 -29.77,-8.15 -37.31,-17.84 -8.28,-10.63 -20.13,-46.43 3.19,-69.5 8.01,-7.94 11.95,-17.68 11.4,-27.82 -1.19,-9.56 -5.51,-18.87 -13.62,-25.5 -7.74,-6.32 -17.39,-9.02 -26.72,-8.22 -9.34,0.8 -18.36,5.08 -24.85,12.63 -12.98,15.09 -10.95,37.6 4.53,50.25 0.08,0.06 0.18,0.09 0.26,0.16 22.27,22.75 11.23,57.75 3.24,68.34 -3.11,4.13 -6.48,8.17 -10.84,11.4 -97.14,-11.42 -189.56,-38.36 -203.4,-96.34 l 1.06,56.38 c 8.08,84.18 248.33,106.53 371.87,105.65 113.51,-0.8 338.29,-25.19 336.94,-109.03 l 0.16,-56.62 c -4.92,55.81 -95.19,82.79 -189.63,95.78 -4.23,-3.13 -7.59,-7 -10.69,-10.97 -8.27,-10.63 -20.12,-46.4 3.19,-69.47 8.02,-7.93 11.99,-17.68 11.44,-27.81 z" />
    </g>
  </g>
  <g
     id="g1"
     inkscape:label="Shield">
    <path
       fill="none"
       stroke="#000000"
       stroke-width="3"
       d="M 6,6 V 76 C 6,218 110,283 130,293 150,283 254,218 254,76 V 6 Z"
       id="path5"
       inkscape:label="Whole"
       style="display:inline;fill:#ce1126;fill-opacity:1;stroke:#000000;stroke-opacity:1;stroke-width:3;stroke-dasharray:none" />
    <path
       stroke="#000000"
       stroke-width="3"
       d="M 6,6 V 76 C 6,130.46011 21.297258,173.59436 41.286346,206.64381 41.543502,207.1395 254,6 254,6 Z"
       id="path3"
       inkscape:label="Top"
       sodipodi:nodetypes="csccc"
       style="display:inline;fill-opacity:1;stroke:none;stroke-opacity:1;fill:url(#linearGradient14)" />
  </g>
  <g
     id="g8"
     inkscape:label="Crown (Back)"
     transform="matrix(0.11226566,-0.15934957,0.15934957,0.11226566,4.0551018,139.96013)"
     style="display:inline;stroke:none;fill:#fcd116;fill-opacity:1">
    <g
       id="g7"
       transform="matrix(-0.34902787,1.3215881,-1.3215881,-0.34902787,1082.9493,141.55557)"
       style="stroke:none;fill:#fcd116;fill-opacity:1">
      <path
         id="path6"
         sodipodi:nodetypes="csccscc"
         style="fill:#fcd116;fill-rule:evenodd;stroke:none;stroke-width:1.46518;fill-opacity:1"
         d="m 229.01475,450.00724 c 8.1235,-83.58595 132.29258,-101.59232 198.24047,-102.1228 60.79496,-0.48044 174.41151,14.49317 181.99345,99.09004 l -0.0589,-56.60143 c 0.0321,-34.92173 -62.29102,-99.11006 -184.10079,-100.12097 -124.02965,-1.02093 -195.75784,53.11826 -196.84097,99.63053 z" />
    </g>
  </g>
  <g
     inkscape:groupmode="layer"
     id="layer1"
     inkscape:label="Anvil">
    <path
       style="fill:#000000;stroke-width:1.37046"
       d="M 19.622788,114.32838 H 242.62085 l -64.27171,27.41361 c -9.39616,4.94029 -20.35275,10.27458 -21.96864,24.18627 l 35.00131,33.19712 H 70.861828 L 105.14146,165.56742 C 71.902375,107.88671 69.652905,155.6695 19.622788,114.32838 Z"
       id="path2"
       sodipodi:nodetypes="cccccccc" />
  </g>
  <g
     id="g5"
     inkscape:label="Crown (Front)"
     transform="matrix(0.08686555,-0.12742454,0.10052265,0.06852648,24.211155,91.116901)">
    <g
       id="g4"
       transform="matrix(1.3669,0,0,1.3669,167.39047,-159.68435)">
      <path
         id="path4"
         sodipodi:nodetypes="csssscsccsscscsscscsscsssscscccscccssc"
         style="fill:#fcd116;fill-rule:evenodd;stroke:none;stroke-width:1.737;stroke-linecap:square;fill-opacity:1"
         d="m -23.464232,951.07848 c 9.56,-1.22 18.9000005,-5.50999 25.5299999,-13.62995 6.3299994,-7.73994 8.9899991,-17.4099 8.1899991,-26.74986 -0.7999997,-9.32996 -5.0799987,-18.31992 -12.6199988,-24.80992 -15.0900002,-12.97997 -37.6000002,-10.94997 -50.2500012,4.53 -0.07,0.08 -0.1,0.14 -0.16,0.22 -22.75,22.27992 -57.750017,11.26996 -68.340017,3.27996 -9.81001,-7.38996 -17.52001,-16.00993 -19.91001,-36.52993 0,0 0.18,-7.68 -0.03,-11.56 1.01,-17.61 10.4,-26.2 20.06001,-33.72 12.24,-9.53 53.430017,-23.19 80.000018,3.66 9.13,9.22 20.36,13.79 32.0300004,13.15 11.0099995,-1.39 21.7399986,-6.34 29.3799986,-15.68 7.28,-8.92 10.36,-20.04 9.43,-30.79 -0.92,-10.74 -5.84,-21.12 -14.53,-28.59 -17.3699988,-14.95 -43.269999,-12.61 -57.839999,5.22 -0.07,0.09 -0.12,0.19 -0.19,0.28 -26.200001,25.65 -66.490018,12.95 -78.680018,3.75 -11.29001,-8.51 -22.31001,-18.4 -20.60001,-42.25 -1.27,-21.03 8.15,-29.77 17.84001,-37.31 10.63,-8.28 46.430017,-20.13 69.500017,3.19 7.940001,8.01 17.680001,11.95 27.820001,11.4 9.56,-1.19 18.8700004,-5.51 25.5000003,-13.62 6.32,-7.74 9.019999,-17.39 8.22,-26.72 -0.8,-9.34 -5.0800001,-18.36 -12.6299999,-24.85 -15.0900004,-12.98 -37.6000004,-10.95 -50.2500014,4.53 -0.06,0.08 -0.09,0.18 -0.16,0.26 -22.750002,22.27 -57.750027,11.23 -68.340027,3.24 -4.13,-3.11 -8.17,-6.48 -11.4,-10.84 11.42,-97.14 38.360026,-189.56 96.340028,-203.4 l -56.380003,1.06 c -84.180035,8.08 -106.530035,248.33 -105.650035,371.87 0.8,113.50989 25.19,338.28962 109.030035,336.93962 l 56.620003,0.16 c -55.810003,-4.92 -82.790028,-95.1901 -95.780028,-189.62992 3.13,-4.22999 7,-7.58995 10.97001,-10.68995 10.63,-8.26994 46.400017,-20.1199 69.470017,3.19 7.930001,8.01995 17.680001,11.98995 27.810001,11.43995 z" />
    </g>
  </g>
  <g
     transform="matrix(0.97014229,0,0,0.97014229,46.297991,-161.14605)"
     inkscape:label="Hammer"
     id="g9">
    <path
       d="m 31.641817,220.49906 c 0.310407,-8.06597 0.741288,-16.0114 1.001852,-24.12551 l 0.134111,-4.93096 -4.137151,2.54012 c -8.640271,5.18736 -17.324147,10.2008 -25.9997249,15.37088 l -1.3801828,0.77554 0.1331496,1.6049 c 0.176242,15.82296 0.1834581,31.605 0.4492961,47.4561 l 0.045014,2.78486 2.6761465,-0.15628 C 13.010521,261.7057 21.424709,261.63937 29.844973,261.5686 l 2.784543,-0.0512 -0.15041,-2.67575 c -0.169428,-5.98956 -0.466228,-12.02834 -0.720761,-17.9868 28.201124,-0.0637 138.200575,-0.39928 138.200575,-0.39928 l 0.83573,-1.30134 c 1.57543,-2.72239 3.1658,-5.83717 3.38063,-9.59817 0.36776,-4.45904 -1.4859,-8.32292 -3.40136,-11.50837 0,0 -110.134151,1.64043 -139.132103,2.45133 z"
       fill="#ce1126"
       id="path8"
       sodipodi:nodetypes="ccccccccccccccccccc"
       style="fill:#002b7f;fill-opacity:1" />
  </g>
</svg>
